<svg xmlns="http://www.w3.org/2000/svg" width="491.804" height="110.288" viewBox="0 0 491.804 110.288">
  <g id="Group_12" data-name="Group 12" transform="translate(-69.77 -600)">
    <g id="Group_1" data-name="Group 1" transform="translate(-754.774 69.042)">
      <rect id="Rectangle_4" data-name="Rectangle 4" width="31.194" height="31.194" transform="translate(868.659 553.016) rotate(45)" fill="#8f9cb1" opacity="0.6"/>
      <path id="Rectangle_11" data-name="Rectangle 11" d="M0,0H31.194V31.194H4a4,4,0,0,1-4-4Z" transform="translate(846.602 575.073) rotate(45)" fill="#8f9cb1" opacity="0.8"/>
      <rect id="Rectangle_7" data-name="Rectangle 7" width="31.194" height="31.194" transform="translate(912.774 553.016) rotate(45)" fill="#8f9cb1" opacity="0.6"/>
      <rect id="Rectangle_9" data-name="Rectangle 9" width="31.194" height="31.194" transform="translate(890.716 575.073) rotate(45)" fill="#8f9cb1" opacity="0.8"/>
      <path id="Rectangle_13" data-name="Rectangle 13" d="M0,0H31.194V27.194a4,4,0,0,1-4,4H0Z" transform="translate(912.774 597.131) rotate(45)" fill="#8f9cb1"/>
      <path id="Rectangle_14" data-name="Rectangle 14" d="M0,0H31.194V27.194a4,4,0,0,1-4,4H0Z" transform="translate(868.659 597.131) rotate(45)" fill="#8f9cb1"/>
      <path id="Rectangle_15" data-name="Rectangle 15" d="M0,0H31.194V27.194a4,4,0,0,1-4,4H0Z" transform="translate(956.889 597.131) rotate(45)" fill="#8f9cb1"/>
      <rect id="Rectangle_10" data-name="Rectangle 10" width="31.194" height="31.194" transform="translate(934.831 575.073) rotate(45)" fill="#8f9cb1" opacity="0.8"/>
      <path id="Rectangle_12" data-name="Rectangle 12" d="M0,0H27.194a4,4,0,0,1,4,4V31.194H0Z" transform="translate(978.946 575.073) rotate(45)" fill="#8f9cb1" opacity="0.8"/>
      <rect id="Rectangle_8" data-name="Rectangle 8" width="31.194" height="31.194" transform="translate(956.889 553.016) rotate(45)" fill="#8f9cb1" opacity="0.6"/>
      <path id="Rectangle_5" data-name="Rectangle 5" d="M3,0H31.194V31.194H0V3A3,3,0,0,1,3,0Z" transform="translate(890.716 530.958) rotate(45)" fill="#1a73e8"/>
      <path id="Rectangle_6" data-name="Rectangle 6" d="M3,0H31.194V31.194H0V3A3,3,0,0,1,3,0Z" transform="translate(934.831 530.958) rotate(45)" fill="#8f9cb1" opacity="0.4"/>
    </g>
    <path id="Path_195" data-name="Path 195" d="M25.963,6.133,15.949-29.134h-.3q.7,9.009.7,14V6.133H4.629V-42.832H22.245L32.46-8.068h.268L42.742-42.832h17.65V6.133H48.235V-15.335q0-1.675.05-3.718t.452-10.014h-.3l-9.88,35.2Zm62.529.67q-9.478,0-14.72-5.04T68.531-12.589q0-9.612,4.856-14.753t13.866-5.141q8.574,0,13.246,4.471t4.672,12.877v5.828H81.76a6.5,6.5,0,0,0,2.328,4.99,9.12,9.12,0,0,0,5.978,1.809,28.867,28.867,0,0,0,6.347-.653,31.439,31.439,0,0,0,6.28-2.227V4.023A23.1,23.1,0,0,1,96.329,6.2,44.034,44.034,0,0,1,88.492,6.8Zm-.77-30.377a5.445,5.445,0,0,0-3.868,1.457,6.839,6.839,0,0,0-1.825,4.572H93.281a6.526,6.526,0,0,0-1.557-4.387A5.141,5.141,0,0,0,87.721-23.574Zm47.759-8.909a18.947,18.947,0,0,1,3.249.268l.737.134-1.172,12.358a19.264,19.264,0,0,0-4.454-.4q-4.287,0-6.229,1.959a7.679,7.679,0,0,0-1.943,5.643V6.133h-13.1V-31.813h9.746l2.043,6.062H125a13.113,13.113,0,0,1,4.572-4.873A10.942,10.942,0,0,1,135.48-32.483ZM160.666,6.8q-9.311,0-14.117-5.024t-4.806-14.435q0-9.445,5.191-14.636t14.77-5.191A27.67,27.67,0,0,1,174.13-29.6l-3.852,9.679a41.994,41.994,0,0,0-4.387-1.658,14.127,14.127,0,0,0-4.186-.62,5.666,5.666,0,0,0-4.923,2.478,12.055,12.055,0,0,0-1.742,7q0,9.11,6.732,9.11a20.366,20.366,0,0,0,11.052-3.349V3.453A21.516,21.516,0,0,1,160.666,6.8Zm46.721-.67L205.746,1.41h-.77a10.653,10.653,0,0,1-4.572,4,15.91,15.91,0,0,1-6.883,1.39q-6.263,0-9.746-3.634T180.292-7.1V-31.813h13.1v20.731a11.908,11.908,0,0,0,1.055,5.627,3.653,3.653,0,0,0,3.466,1.909,5.044,5.044,0,0,0,4.823-2.663q1.44-2.663,1.44-8.992V-31.813h13.1V6.133Zm41.831-38.616a18.947,18.947,0,0,1,3.249.268l.737.134-1.172,12.358a19.264,19.264,0,0,0-4.454-.4q-4.287,0-6.229,1.959a7.679,7.679,0,0,0-1.943,5.643V6.133h-13.1V-31.813h9.746l2.043,6.062h.636a13.113,13.113,0,0,1,4.572-4.873A10.942,10.942,0,0,1,249.218-32.483Zm4.689.67h13.8l6.43,21.769a21.357,21.357,0,0,1,.636,4.119h.268a22.806,22.806,0,0,1,.8-4.052l6.6-21.836H295.8l-15,40.357q-2.88,7.7-7.083,10.885T262.748,22.61a26.364,26.364,0,0,1-5.359-.569V11.759a18.444,18.444,0,0,0,4.052.4,6.592,6.592,0,0,0,3.048-.67A6.938,6.938,0,0,0,266.767,9.6a16.632,16.632,0,0,0,2.076-4Z" transform="translate(265.77 683.804)" fill="#c2c7d0"/>
  </g>
</svg>
